<?xml version="1.0" encoding="UTF-8"?>
<svg version="1.1" xmlns="http://www.w3.org/2000/svg" width="512" height="512">
<path d="M0 0 C21.78 0 43.56 0 66 0 C66 7.26 66 14.52 66 22 C73.59 22 81.18 22 89 22 C89 29.26 89 36.52 89 44 C96.26 44 103.52 44 111 44 C111 51.26 111 58.52 111 66 C118.26 66 125.52 66 133 66 C133 73.59 133 81.18 133 89 C147.85 89 162.7 89 178 89 C178 81.41 178 73.82 178 66 C185.26 66 192.52 66 200 66 C200 58.74 200 51.48 200 44 C214.52 44 229.04 44 244 44 C244 51.26 244 58.52 244 66 C251.59 66 259.18 66 267 66 C267 58.74 267 51.48 267 44 C281.52 44 296.04 44 311 44 C311 51.26 311 58.52 311 66 C318.26 66 325.52 66 333 66 C333 73.59 333 81.18 333 89 C347.85 89 362.7 89 378 89 C378 81.41 378 73.82 378 66 C385.26 66 392.52 66 400 66 C400 58.74 400 51.48 400 44 C407.26 44 414.52 44 422 44 C422 36.74 422 29.48 422 22 C429.59 22 437.18 22 445 22 C445 14.74 445 7.48 445 0 C467.11 0 489.22 0 512 0 C512 21.78 512 43.56 512 66 C504.41 66 496.82 66 489 66 C489 73.59 489 81.18 489 89 C481.74 89 474.48 89 467 89 C467 96.26 467 103.52 467 111 C459.74 111 452.48 111 445 111 C445 118.26 445 125.52 445 133 C437.41 133 429.82 133 422 133 C422 147.85 422 162.7 422 178 C429.59 178 437.18 178 445 178 C445 185.26 445 192.52 445 200 C452.26 200 459.52 200 467 200 C467 214.52 467 229.04 467 244 C459.74 244 452.48 244 445 244 C445 251.59 445 259.18 445 267 C452.26 267 459.52 267 467 267 C467 281.52 467 296.04 467 311 C459.74 311 452.48 311 445 311 C445 318.26 445 325.52 445 333 C437.41 333 429.82 333 422 333 C422 347.85 422 362.7 422 378 C429.59 378 437.18 378 445 378 C445 385.26 445 392.52 445 400 C452.26 400 459.52 400 467 400 C467 407.26 467 414.52 467 422 C474.26 422 481.52 422 489 422 C489 429.59 489 437.18 489 445 C496.59 445 504.18 445 512 445 C512 467.11 512 489.22 512 512 C489.89 512 467.78 512 445 512 C445 504.41 445 496.82 445 489 C437.41 489 429.82 489 422 489 C422 481.74 422 474.48 422 467 C414.74 467 407.48 467 400 467 C400 459.74 400 452.48 400 445 C392.74 445 385.48 445 378 445 C378 437.41 378 429.82 378 422 C363.15 422 348.3 422 333 422 C333 429.59 333 437.18 333 445 C325.74 445 318.48 445 311 445 C311 452.26 311 459.52 311 467 C296.48 467 281.96 467 267 467 C267 459.74 267 452.48 267 445 C259.41 445 251.82 445 244 445 C244 452.26 244 459.52 244 467 C229.48 467 214.96 467 200 467 C200 459.74 200 452.48 200 445 C192.74 445 185.48 445 178 445 C178 437.41 178 429.82 178 422 C163.15 422 148.3 422 133 422 C133 429.59 133 437.18 133 445 C125.74 445 118.48 445 111 445 C111 452.26 111 459.52 111 467 C103.74 467 96.48 467 89 467 C89 474.26 89 481.52 89 489 C81.41 489 73.82 489 66 489 C66 496.59 66 504.18 66 512 C44.22 512 22.44 512 0 512 C0 489.89 0 467.78 0 445 C7.26 445 14.52 445 22 445 C22 437.41 22 429.82 22 422 C29.26 422 36.52 422 44 422 C44 414.74 44 407.48 44 400 C51.26 400 58.52 400 66 400 C66 392.74 66 385.48 66 378 C73.59 378 81.18 378 89 378 C89 363.15 89 348.3 89 333 C81.41 333 73.82 333 66 333 C66 325.74 66 318.48 66 311 C58.74 311 51.48 311 44 311 C44 296.48 44 281.96 44 267 C51.26 267 58.52 267 66 267 C66 259.41 66 251.82 66 244 C58.74 244 51.48 244 44 244 C44 229.48 44 214.96 44 200 C51.26 200 58.52 200 66 200 C66 192.74 66 185.48 66 178 C73.59 178 81.18 178 89 178 C89 163.15 89 148.3 89 133 C81.41 133 73.82 133 66 133 C66 125.74 66 118.48 66 111 C58.74 111 51.48 111 44 111 C44 103.74 44 96.48 44 89 C36.74 89 29.48 89 22 89 C22 81.41 22 73.82 22 66 C14.74 66 7.48 66 0 66 C0 44.22 0 22.44 0 0 Z M244 111 C244 118.26 244 125.52 244 133 C236.74 133 229.48 133 222 133 C222 140.26 222 147.52 222 155 C214.74 155 207.48 155 200 155 C200 162.59 200 170.18 200 178 C192.74 178 185.48 178 178 178 C178 185.26 178 192.52 178 200 C170.41 200 162.82 200 155 200 C155 207.26 155 214.52 155 222 C147.74 222 140.48 222 133 222 C133 229.26 133 236.52 133 244 C125.74 244 118.48 244 111 244 C111 251.59 111 259.18 111 267 C118.26 267 125.52 267 133 267 C133 274.26 133 281.52 133 289 C140.26 289 147.52 289 155 289 C155 296.26 155 303.52 155 311 C162.59 311 170.18 311 178 311 C178 318.26 178 325.52 178 333 C185.26 333 192.52 333 200 333 C200 340.59 200 348.18 200 356 C207.26 356 214.52 356 222 356 C222 363.26 222 370.52 222 378 C229.26 378 236.52 378 244 378 C244 385.26 244 392.52 244 400 C251.59 400 259.18 400 267 400 C267 392.74 267 385.48 267 378 C274.26 378 281.52 378 289 378 C289 370.74 289 363.48 289 356 C296.26 356 303.52 356 311 356 C311 348.41 311 340.82 311 333 C318.26 333 325.52 333 333 333 C333 325.74 333 318.48 333 311 C340.59 311 348.18 311 356 311 C356 303.74 356 296.48 356 289 C363.26 289 370.52 289 378 289 C378 281.74 378 274.48 378 267 C385.26 267 392.52 267 400 267 C400 259.41 400 251.82 400 244 C392.74 244 385.48 244 378 244 C378 236.74 378 229.48 378 222 C370.74 222 363.48 222 356 222 C356 214.74 356 207.48 356 200 C348.41 200 340.82 200 333 200 C333 192.74 333 185.48 333 178 C325.74 178 318.48 178 311 178 C311 170.41 311 162.82 311 155 C303.74 155 296.48 155 289 155 C289 147.74 289 140.48 289 133 C281.74 133 274.48 133 267 133 C267 125.74 267 118.48 267 111 C259.41 111 251.82 111 244 111 Z " fill="#FDFEFE" transform="translate(0,0)"/>
<path d="M0 0 C7.59 0 15.18 0 23 0 C23 7.26 23 14.52 23 22 C30.26 22 37.52 22 45 22 C45 29.26 45 36.52 45 44 C52.26 44 59.52 44 67 44 C67 51.59 67 59.18 67 67 C74.59 67 82.18 67 90 67 C90 89.11 90 111.22 90 134 C67.89 134 45.78 134 23 134 C23 126.41 23 118.82 23 111 C15.41 111 7.82 111 0 111 C0 103.74 0 96.48 0 89 C-7.26 89 -14.52 89 -22 89 C-22 81.74 -22 74.48 -22 67 C-29.26 67 -36.52 67 -44 67 C-44 59.41 -44 51.82 -44 44 C-29.48 44 -14.96 44 0 44 C0 29.48 0 14.96 0 0 Z " fill="#77A7BC" transform="translate(422,378)"/>
<path d="M0 0 C7.26 0 14.52 0 22 0 C22 14.85 22 29.7 22 45 C36.85 45 51.7 45 67 45 C67 52.26 67 59.52 67 67 C59.74 67 52.48 67 45 67 C45 74.26 45 81.52 45 89 C37.41 89 29.82 89 22 89 C22 96.59 22 104.18 22 112 C0.22 112 -21.56 112 -44 112 C-44 89.89 -44 67.78 -44 45 C-36.74 45 -29.48 45 -22 45 C-22 37.41 -22 29.82 -22 22 C-14.74 22 -7.48 22 0 22 C0 14.74 0 7.48 0 0 Z " fill="#77A8BC" transform="translate(44,400)"/>
<path d="M0 0 C22.11 0 44.22 0 67 0 C67 21.78 67 43.56 67 66 C59.41 66 51.82 66 44 66 C44 73.59 44 81.18 44 89 C36.74 89 29.48 89 22 89 C22 96.26 22 103.52 22 111 C14.74 111 7.48 111 0 111 C0 96.15 0 81.3 0 66 C-14.85 66 -29.7 66 -45 66 C-45 58.74 -45 51.48 -45 44 C-37.74 44 -30.48 44 -23 44 C-23 36.74 -23 29.48 -23 22 C-15.41 22 -7.82 22 0 22 C0 14.74 0 7.48 0 0 Z " fill="#77A7BC" transform="translate(445,0)"/>
<path d="M0 0 C21.78 0 43.56 0 66 0 C66 7.26 66 14.52 66 22 C73.59 22 81.18 22 89 22 C89 29.26 89 36.52 89 44 C96.26 44 103.52 44 111 44 C111 51.26 111 58.52 111 66 C96.15 66 81.3 66 66 66 C66 80.85 66 95.7 66 111 C58.74 111 51.48 111 44 111 C44 103.74 44 96.48 44 89 C36.74 89 29.48 89 22 89 C22 81.41 22 73.82 22 66 C14.74 66 7.48 66 0 66 C0 44.22 0 22.44 0 0 Z " fill="#77A7BC" transform="translate(0,0)"/>
<path d="M0 0 C7.59 0 15.18 0 23 0 C23 22.11 23 44.22 23 67 C0.89 67 -21.22 67 -44 67 C-44 59.41 -44 51.82 -44 44 C-29.48 44 -14.96 44 0 44 C0 29.48 0 14.96 0 0 Z " fill="#0E2C5A" transform="translate(489,445)"/>
<path d="M0 0 C7.59 0 15.18 0 23 0 C23 14.52 23 29.04 23 44 C37.52 44 52.04 44 67 44 C67 51.59 67 59.18 67 67 C44.89 67 22.78 67 0 67 C0 44.89 0 22.78 0 0 Z " fill="#BCCCD4" transform="translate(66,378)"/>
<path d="M0 0 C7.59 0 15.18 0 23 0 C23 22.11 23 44.22 23 67 C0.89 67 -21.22 67 -44 67 C-44 59.41 -44 51.82 -44 44 C-29.48 44 -14.96 44 0 44 C0 29.48 0 14.96 0 0 Z " fill="#BCCCD5" transform="translate(422,378)"/>
<path d="M0 0 C22.11 0 44.22 0 67 0 C67 22.11 67 44.22 67 67 C59.41 67 51.82 67 44 67 C44 52.48 44 37.96 44 23 C29.48 23 14.96 23 0 23 C0 15.41 0 7.82 0 0 Z " fill="#BCCCD4" transform="translate(378,66)"/>
<path d="M0 0 C22.11 0 44.22 0 67 0 C67 7.59 67 15.18 67 23 C52.48 23 37.96 23 23 23 C23 37.52 23 52.04 23 67 C15.41 67 7.82 67 0 67 C0 44.89 0 22.78 0 0 Z " fill="#BDCCD4" transform="translate(66,66)"/>
<path d="M0 0 C7.26 0 14.52 0 22 0 C22 14.52 22 29.04 22 44 C36.52 44 51.04 44 66 44 C66 51.59 66 59.18 66 67 C44.22 67 22.44 67 0 67 C0 44.89 0 22.78 0 0 Z " fill="#0F2C5A" transform="translate(0,445)"/>
<path d="M0 0 C22.11 0 44.22 0 67 0 C67 21.78 67 43.56 67 66 C59.41 66 51.82 66 44 66 C44 51.48 44 36.96 44 22 C29.48 22 14.96 22 0 22 C0 14.74 0 7.48 0 0 Z " fill="#0E2C5A" transform="translate(445,0)"/>
<path d="M0 0 C21.78 0 43.56 0 66 0 C66 7.26 66 14.52 66 22 C51.48 22 36.96 22 22 22 C22 36.52 22 51.04 22 66 C14.74 66 7.48 66 0 66 C0 44.22 0 22.44 0 0 Z " fill="#0E2C5A" transform="translate(0,0)"/>
<path d="M0 0 C14.52 0 29.04 0 44 0 C44 14.52 44 29.04 44 44 C29.48 44 14.96 44 0 44 C0 29.48 0 14.96 0 0 Z " fill="#FDFEFE" transform="translate(378,378)"/>
<path d="M0 0 C14.52 0 29.04 0 44 0 C44 14.52 44 29.04 44 44 C29.48 44 14.96 44 0 44 C0 29.48 0 14.96 0 0 Z " fill="#FDFEFE" transform="translate(89,378)"/>
<path d="M0 0 C14.52 0 29.04 0 44 0 C44 14.52 44 29.04 44 44 C29.48 44 14.96 44 0 44 C0 29.48 0 14.96 0 0 Z " fill="#FDFEFE" transform="translate(378,89)"/>
<path d="M0 0 C14.52 0 29.04 0 44 0 C44 14.52 44 29.04 44 44 C29.48 44 14.96 44 0 44 C0 29.48 0 14.96 0 0 Z " fill="#FDFEFE" transform="translate(89,89)"/>
<path d="M0 0 C7.26 0 14.52 0 22 0 C22 14.52 22 29.04 22 44 C7.15 44 -7.7 44 -23 44 C-23 36.74 -23 29.48 -23 22 C-15.41 22 -7.82 22 0 22 C0 14.74 0 7.48 0 0 Z " fill="#0F2B5A" transform="translate(356,378)"/>
<path d="M0 0 C7.26 0 14.52 0 22 0 C22 7.26 22 14.52 22 22 C29.59 22 37.18 22 45 22 C45 29.26 45 36.52 45 44 C30.15 44 15.3 44 0 44 C0 29.48 0 14.96 0 0 Z " fill="#0F2B5A" transform="translate(133,378)"/>
<path d="M0 0 C7.26 0 14.52 0 22 0 C22 14.85 22 29.7 22 45 C7.48 45 -7.04 45 -22 45 C-22 37.74 -22 30.48 -22 23 C-14.74 23 -7.48 23 0 23 C0 15.41 0 7.82 0 0 Z " fill="#0F2C5A" transform="translate(400,333)"/>
<path d="M0 0 C7.26 0 14.52 0 22 0 C22 7.59 22 15.18 22 23 C29.26 23 36.52 23 44 23 C44 30.26 44 37.52 44 45 C29.48 45 14.96 45 0 45 C0 30.15 0 15.3 0 0 Z " fill="#102B59" transform="translate(89,333)"/>
<path d="M0 0 C14.52 0 29.04 0 44 0 C44 14.85 44 29.7 44 45 C36.74 45 29.48 45 22 45 C22 37.41 22 29.82 22 22 C14.74 22 7.48 22 0 22 C0 14.74 0 7.48 0 0 Z " fill="#0F2B58" transform="translate(378,133)"/>
<path d="M0 0 C14.52 0 29.04 0 44 0 C44 7.26 44 14.52 44 22 C36.74 22 29.48 22 22 22 C22 29.59 22 37.18 22 45 C14.74 45 7.48 45 0 45 C0 30.15 0 15.3 0 0 Z " fill="#0F2C58" transform="translate(89,133)"/>
<path d="M0 0 C14.85 0 29.7 0 45 0 C45 14.52 45 29.04 45 44 C37.74 44 30.48 44 23 44 C23 36.74 23 29.48 23 22 C15.41 22 7.82 22 0 22 C0 14.74 0 7.48 0 0 Z " fill="#0F2C59" transform="translate(333,89)"/>
<path d="M0 0 C14.85 0 29.7 0 45 0 C45 7.26 45 14.52 45 22 C37.41 22 29.82 22 22 22 C22 29.26 22 36.52 22 44 C14.74 44 7.48 44 0 44 C0 29.48 0 14.96 0 0 Z " fill="#0F2C59" transform="translate(133,89)"/>
<path d="M0 0 C7.59 0 15.18 0 23 0 C23 14.85 23 29.7 23 45 C15.41 45 7.82 45 0 45 C0 30.15 0 15.3 0 0 Z " fill="#0E2B57" transform="translate(244,400)"/>
<path d="M0 0 C14.85 0 29.7 0 45 0 C45 7.59 45 15.18 45 23 C30.15 23 15.3 23 0 23 C0 15.41 0 7.82 0 0 Z " fill="#0E2B58" transform="translate(400,244)"/>
<path d="M0 0 C14.85 0 29.7 0 45 0 C45 7.59 45 15.18 45 23 C30.15 23 15.3 23 0 23 C0 15.41 0 7.82 0 0 Z " fill="#0F2C58" transform="translate(66,244)"/>
<path d="M0 0 C7.59 0 15.18 0 23 0 C23 14.85 23 29.7 23 45 C15.41 45 7.82 45 0 45 C0 30.15 0 15.3 0 0 Z " fill="#0F2C59" transform="translate(244,66)"/>
<path d="M0 0 C14.52 0 29.04 0 44 0 C44 7.26 44 14.52 44 22 C29.48 22 14.96 22 0 22 C0 14.74 0 7.48 0 0 Z " fill="#0F2B59" transform="translate(267,445)"/>
<path d="M0 0 C14.52 0 29.04 0 44 0 C44 7.26 44 14.52 44 22 C29.48 22 14.96 22 0 22 C0 14.74 0 7.48 0 0 Z " fill="#102B59" transform="translate(200,445)"/>
<path d="M0 0 C7.26 0 14.52 0 22 0 C22 14.52 22 29.04 22 44 C14.74 44 7.48 44 0 44 C0 29.48 0 14.96 0 0 Z " fill="#0F2B59" transform="translate(445,267)"/>
<path d="M0 0 C7.26 0 14.52 0 22 0 C22 14.52 22 29.04 22 44 C14.74 44 7.48 44 0 44 C0 29.48 0 14.96 0 0 Z " fill="#102B5A" transform="translate(44,267)"/>
<path d="M0 0 C7.26 0 14.52 0 22 0 C22 14.52 22 29.04 22 44 C14.74 44 7.48 44 0 44 C0 29.48 0 14.96 0 0 Z " fill="#0F2B58" transform="translate(445,200)"/>
<path d="M0 0 C7.26 0 14.52 0 22 0 C22 14.52 22 29.04 22 44 C14.74 44 7.48 44 0 44 C0 29.48 0 14.96 0 0 Z " fill="#102B58" transform="translate(44,200)"/>
<path d="M0 0 C14.52 0 29.04 0 44 0 C44 7.26 44 14.52 44 22 C29.48 22 14.96 22 0 22 C0 14.74 0 7.48 0 0 Z " fill="#102C5A" transform="translate(267,44)"/>
<path d="M0 0 C14.52 0 29.04 0 44 0 C44 7.26 44 14.52 44 22 C29.48 22 14.96 22 0 22 C0 14.74 0 7.48 0 0 Z " fill="#102B58" transform="translate(200,44)"/>
<path d="M0 0 C7.59 0 15.18 0 23 0 C23 7.26 23 14.52 23 22 C15.41 22 7.82 22 0 22 C0 14.74 0 7.48 0 0 Z " fill="#0F2D5A" transform="translate(422,467)"/>
<path d="M0 0 C7.59 0 15.18 0 23 0 C23 7.26 23 14.52 23 22 C15.41 22 7.82 22 0 22 C0 14.74 0 7.48 0 0 Z " fill="#102D5B" transform="translate(66,467)"/>
<path d="M0 0 C7.26 0 14.52 0 22 0 C22 7.59 22 15.18 22 23 C14.74 23 7.48 23 0 23 C0 15.41 0 7.82 0 0 Z " fill="#0F2D5B" transform="translate(467,422)"/>
<path d="M0 0 C7.26 0 14.52 0 22 0 C22 7.59 22 15.18 22 23 C14.74 23 7.48 23 0 23 C0 15.41 0 7.82 0 0 Z " fill="#102B57" transform="translate(378,422)"/>
<path d="M0 0 C7.26 0 14.52 0 22 0 C22 7.59 22 15.18 22 23 C14.74 23 7.48 23 0 23 C0 15.41 0 7.82 0 0 Z " fill="#102A59" transform="translate(311,422)"/>
<path d="M0 0 C7.26 0 14.52 0 22 0 C22 7.59 22 15.18 22 23 C14.74 23 7.48 23 0 23 C0 15.41 0 7.82 0 0 Z " fill="#102B58" transform="translate(178,422)"/>
<path d="M0 0 C7.26 0 14.52 0 22 0 C22 7.59 22 15.18 22 23 C14.74 23 7.48 23 0 23 C0 15.41 0 7.82 0 0 Z " fill="#102C59" transform="translate(111,422)"/>
<path d="M0 0 C7.26 0 14.52 0 22 0 C22 7.59 22 15.18 22 23 C14.74 23 7.48 23 0 23 C0 15.41 0 7.82 0 0 Z " fill="#0F2C59" transform="translate(22,422)"/>
<path d="M0 0 C7.59 0 15.18 0 23 0 C23 7.26 23 14.52 23 22 C15.41 22 7.82 22 0 22 C0 14.74 0 7.48 0 0 Z " fill="#366B7F" transform="translate(244,400)"/>
<path d="M0 0 C7.59 0 15.18 0 23 0 C23 7.26 23 14.52 23 22 C15.41 22 7.82 22 0 22 C0 14.74 0 7.48 0 0 Z " fill="#102B56" transform="translate(422,378)"/>
<path d="M0 0 C7.59 0 15.18 0 23 0 C23 7.26 23 14.52 23 22 C15.41 22 7.82 22 0 22 C0 14.74 0 7.48 0 0 Z " fill="#112B57" transform="translate(66,378)"/>
<path d="M0 0 C7.26 0 14.52 0 22 0 C22 7.59 22 15.18 22 23 C14.74 23 7.48 23 0 23 C0 15.41 0 7.82 0 0 Z " fill="#366C7F" transform="translate(311,333)"/>
<path d="M0 0 C7.26 0 14.52 0 22 0 C22 7.59 22 15.18 22 23 C14.74 23 7.48 23 0 23 C0 15.41 0 7.82 0 0 Z " fill="#366B7D" transform="translate(178,333)"/>
<path d="M0 0 C7.59 0 15.18 0 23 0 C23 7.26 23 14.52 23 22 C15.41 22 7.82 22 0 22 C0 14.74 0 7.48 0 0 Z " fill="#102A59" transform="translate(422,311)"/>
<path d="M0 0 C7.59 0 15.18 0 23 0 C23 7.26 23 14.52 23 22 C15.41 22 7.82 22 0 22 C0 14.74 0 7.48 0 0 Z " fill="#366C7F" transform="translate(333,311)"/>
<path d="M0 0 C7.59 0 15.18 0 23 0 C23 7.26 23 14.52 23 22 C15.41 22 7.82 22 0 22 C0 14.74 0 7.48 0 0 Z " fill="#356C7F" transform="translate(155,311)"/>
<path d="M0 0 C7.59 0 15.18 0 23 0 C23 7.26 23 14.52 23 22 C15.41 22 7.82 22 0 22 C0 14.74 0 7.48 0 0 Z " fill="#102C59" transform="translate(66,311)"/>
<path d="M0 0 C7.26 0 14.52 0 22 0 C22 7.59 22 15.18 22 23 C14.74 23 7.48 23 0 23 C0 15.41 0 7.82 0 0 Z " fill="#376B7E" transform="translate(400,244)"/>
<path d="M0 0 C7.26 0 14.52 0 22 0 C22 7.59 22 15.18 22 23 C14.74 23 7.48 23 0 23 C0 15.41 0 7.82 0 0 Z " fill="#376C82" transform="translate(89,244)"/>
<path d="M0 0 C7.59 0 15.18 0 23 0 C23 7.26 23 14.52 23 22 C15.41 22 7.82 22 0 22 C0 14.74 0 7.48 0 0 Z " fill="#376C7E" transform="translate(155,178)"/>
<path d="M0 0 C7.59 0 15.18 0 23 0 C23 7.26 23 14.52 23 22 C15.41 22 7.82 22 0 22 C0 14.74 0 7.48 0 0 Z " fill="#102B59" transform="translate(422,178)"/>
<path d="M0 0 C7.59 0 15.18 0 23 0 C23 7.26 23 14.52 23 22 C15.41 22 7.82 22 0 22 C0 14.74 0 7.48 0 0 Z " fill="#366C7E" transform="translate(333,178)"/>
<path d="M0 0 C7.59 0 15.18 0 23 0 C23 7.26 23 14.52 23 22 C15.41 22 7.82 22 0 22 C0 14.74 0 7.48 0 0 Z " fill="#112B58" transform="translate(66,178)"/>
<path d="M0 0 C7.26 0 14.52 0 22 0 C22 7.59 22 15.18 22 23 C14.74 23 7.48 23 0 23 C0 15.41 0 7.82 0 0 Z " fill="#346C81" transform="translate(311,155)"/>
<path d="M0 0 C7.26 0 14.52 0 22 0 C22 7.59 22 15.18 22 23 C14.74 23 7.48 23 0 23 C0 15.41 0 7.82 0 0 Z " fill="#376C7E" transform="translate(178,155)"/>
<path d="M0 0 C7.59 0 15.18 0 23 0 C23 7.26 23 14.52 23 22 C15.41 22 7.82 22 0 22 C0 14.74 0 7.48 0 0 Z " fill="#102C58" transform="translate(422,111)"/>
<path d="M0 0 C7.59 0 15.18 0 23 0 C23 7.26 23 14.52 23 22 C15.41 22 7.82 22 0 22 C0 14.74 0 7.48 0 0 Z " fill="#112B58" transform="translate(66,111)"/>
<path d="M0 0 C7.59 0 15.18 0 23 0 C23 7.26 23 14.52 23 22 C15.41 22 7.82 22 0 22 C0 14.74 0 7.48 0 0 Z " fill="#386C81" transform="translate(244,89)"/>
<path d="M0 0 C7.26 0 14.52 0 22 0 C22 7.59 22 15.18 22 23 C14.74 23 7.48 23 0 23 C0 15.41 0 7.82 0 0 Z " fill="#112B57" transform="translate(378,66)"/>
<path d="M0 0 C7.26 0 14.52 0 22 0 C22 7.59 22 15.18 22 23 C14.74 23 7.48 23 0 23 C0 15.41 0 7.82 0 0 Z " fill="#112C59" transform="translate(311,66)"/>
<path d="M0 0 C7.26 0 14.52 0 22 0 C22 7.59 22 15.18 22 23 C14.74 23 7.48 23 0 23 C0 15.41 0 7.82 0 0 Z " fill="#112B58" transform="translate(178,66)"/>
<path d="M0 0 C7.26 0 14.52 0 22 0 C22 7.59 22 15.18 22 23 C14.74 23 7.48 23 0 23 C0 15.41 0 7.82 0 0 Z " fill="#112B58" transform="translate(111,66)"/>
<path d="M0 0 C7.26 0 14.52 0 22 0 C22 7.59 22 15.18 22 23 C14.74 23 7.48 23 0 23 C0 15.41 0 7.82 0 0 Z " fill="#0F2B59" transform="translate(22,66)"/>
<path d="M0 0 C7.26 0 14.52 0 22 0 C22 7.59 22 15.18 22 23 C14.74 23 7.48 23 0 23 C0 15.41 0 7.82 0 0 Z " fill="#102D5B" transform="translate(467,66)"/>
<path d="M0 0 C7.59 0 15.18 0 23 0 C23 7.26 23 14.52 23 22 C15.41 22 7.82 22 0 22 C0 14.74 0 7.48 0 0 Z " fill="#102C59" transform="translate(422,22)"/>
<path d="M0 0 C7.59 0 15.18 0 23 0 C23 7.26 23 14.52 23 22 C15.41 22 7.82 22 0 22 C0 14.74 0 7.48 0 0 Z " fill="#0E2C58" transform="translate(66,22)"/>
<path d="M0 0 C7.26 0 14.52 0 22 0 C22 7.26 22 14.52 22 22 C14.74 22 7.48 22 0 22 C0 14.74 0 7.48 0 0 Z " fill="#0F2B59" transform="translate(89,445)"/>
<path d="M0 0 C7.26 0 14.52 0 22 0 C22 7.26 22 14.52 22 22 C14.74 22 7.48 22 0 22 C0 14.74 0 7.48 0 0 Z " fill="#112B58" transform="translate(400,445)"/>
<path d="M0 0 C7.26 0 14.52 0 22 0 C22 7.26 22 14.52 22 22 C14.74 22 7.48 22 0 22 C0 14.74 0 7.48 0 0 Z " fill="#112B58" transform="translate(445,400)"/>
<path d="M0 0 C7.26 0 14.52 0 22 0 C22 7.26 22 14.52 22 22 C14.74 22 7.48 22 0 22 C0 14.74 0 7.48 0 0 Z " fill="#0F2B5B" transform="translate(44,400)"/>
<path d="M0 0 C7.26 0 14.52 0 22 0 C22 7.26 22 14.52 22 22 C14.74 22 7.48 22 0 22 C0 14.74 0 7.48 0 0 Z " fill="#366B81" transform="translate(356,378)"/>
<path d="M0 0 C7.26 0 14.52 0 22 0 C22 7.26 22 14.52 22 22 C14.74 22 7.48 22 0 22 C0 14.74 0 7.48 0 0 Z " fill="#366C7C" transform="translate(267,378)"/>
<path d="M0 0 C7.26 0 14.52 0 22 0 C22 7.26 22 14.52 22 22 C14.74 22 7.48 22 0 22 C0 14.74 0 7.48 0 0 Z " fill="#376C7D" transform="translate(222,378)"/>
<path d="M0 0 C7.26 0 14.52 0 22 0 C22 7.26 22 14.52 22 22 C14.74 22 7.48 22 0 22 C0 14.74 0 7.48 0 0 Z " fill="#346C81" transform="translate(133,378)"/>
<path d="M0 0 C7.26 0 14.52 0 22 0 C22 7.26 22 14.52 22 22 C14.74 22 7.48 22 0 22 C0 14.74 0 7.48 0 0 Z " fill="#366B81" transform="translate(378,356)"/>
<path d="M0 0 C7.26 0 14.52 0 22 0 C22 7.26 22 14.52 22 22 C14.74 22 7.48 22 0 22 C0 14.74 0 7.48 0 0 Z " fill="#346C80" transform="translate(289,356)"/>
<path d="M0 0 C7.26 0 14.52 0 22 0 C22 7.26 22 14.52 22 22 C14.74 22 7.48 22 0 22 C0 14.74 0 7.48 0 0 Z " fill="#376C7F" transform="translate(200,356)"/>
<path d="M0 0 C7.26 0 14.52 0 22 0 C22 7.26 22 14.52 22 22 C14.74 22 7.48 22 0 22 C0 14.74 0 7.48 0 0 Z " fill="#386B80" transform="translate(111,356)"/>
<path d="M0 0 C7.26 0 14.52 0 22 0 C22 7.26 22 14.52 22 22 C14.74 22 7.48 22 0 22 C0 14.74 0 7.48 0 0 Z " fill="#366C7F" transform="translate(356,289)"/>
<path d="M0 0 C7.26 0 14.52 0 22 0 C22 7.26 22 14.52 22 22 C14.74 22 7.48 22 0 22 C0 14.74 0 7.48 0 0 Z " fill="#356C7F" transform="translate(133,289)"/>
<path d="M0 0 C7.26 0 14.52 0 22 0 C22 7.26 22 14.52 22 22 C14.74 22 7.48 22 0 22 C0 14.74 0 7.48 0 0 Z " fill="#366C7C" transform="translate(378,267)"/>
<path d="M0 0 C7.26 0 14.52 0 22 0 C22 7.26 22 14.52 22 22 C14.74 22 7.48 22 0 22 C0 14.74 0 7.48 0 0 Z " fill="#366C7E" transform="translate(111,267)"/>
<path d="M0 0 C7.26 0 14.52 0 22 0 C22 7.26 22 14.52 22 22 C14.74 22 7.48 22 0 22 C0 14.74 0 7.48 0 0 Z " fill="#376C7D" transform="translate(378,222)"/>
<path d="M0 0 C7.26 0 14.52 0 22 0 C22 7.26 22 14.52 22 22 C14.74 22 7.48 22 0 22 C0 14.74 0 7.48 0 0 Z " fill="#376C7F" transform="translate(111,222)"/>
<path d="M0 0 C7.26 0 14.52 0 22 0 C22 7.26 22 14.52 22 22 C14.74 22 7.48 22 0 22 C0 14.74 0 7.48 0 0 Z " fill="#376C7F" transform="translate(356,200)"/>
<path d="M0 0 C7.26 0 14.52 0 22 0 C22 7.26 22 14.52 22 22 C14.74 22 7.48 22 0 22 C0 14.74 0 7.48 0 0 Z " fill="#366D81" transform="translate(133,200)"/>
<path d="M0 0 C7.26 0 14.52 0 22 0 C22 7.26 22 14.52 22 22 C14.74 22 7.48 22 0 22 C0 14.74 0 7.48 0 0 Z " fill="#376B7F" transform="translate(378,133)"/>
<path d="M0 0 C7.26 0 14.52 0 22 0 C22 7.26 22 14.52 22 22 C14.74 22 7.48 22 0 22 C0 14.74 0 7.48 0 0 Z " fill="#356D81" transform="translate(200,133)"/>
<path d="M0 0 C7.26 0 14.52 0 22 0 C22 7.26 22 14.52 22 22 C14.74 22 7.48 22 0 22 C0 14.74 0 7.48 0 0 Z " fill="#386B80" transform="translate(111,133)"/>
<path d="M0 0 C7.26 0 14.52 0 22 0 C22 7.26 22 14.52 22 22 C14.74 22 7.48 22 0 22 C0 14.74 0 7.48 0 0 Z " fill="#366C7D" transform="translate(289,133)"/>
<path d="M0 0 C7.26 0 14.52 0 22 0 C22 7.26 22 14.52 22 22 C14.74 22 7.48 22 0 22 C0 14.74 0 7.48 0 0 Z " fill="#366B7E" transform="translate(267,111)"/>
<path d="M0 0 C7.26 0 14.52 0 22 0 C22 7.26 22 14.52 22 22 C14.74 22 7.48 22 0 22 C0 14.74 0 7.48 0 0 Z " fill="#376C7F" transform="translate(222,111)"/>
<path d="M0 0 C7.26 0 14.52 0 22 0 C22 7.26 22 14.52 22 22 C14.74 22 7.48 22 0 22 C0 14.74 0 7.48 0 0 Z " fill="#356C82" transform="translate(356,111)"/>
<path d="M0 0 C7.26 0 14.52 0 22 0 C22 7.26 22 14.52 22 22 C14.74 22 7.48 22 0 22 C0 14.74 0 7.48 0 0 Z " fill="#366C82" transform="translate(133,111)"/>
<path d="M0 0 C7.26 0 14.52 0 22 0 C22 7.26 22 14.52 22 22 C14.74 22 7.48 22 0 22 C0 14.74 0 7.48 0 0 Z " fill="#0F2B58" transform="translate(445,89)"/>
<path d="M0 0 C7.26 0 14.52 0 22 0 C22 7.26 22 14.52 22 22 C14.74 22 7.48 22 0 22 C0 14.74 0 7.48 0 0 Z " fill="#0E2C57" transform="translate(44,89)"/>
<path d="M0 0 C7.26 0 14.52 0 22 0 C22 7.26 22 14.52 22 22 C14.74 22 7.48 22 0 22 C0 14.74 0 7.48 0 0 Z " fill="#0F2B5A" transform="translate(400,44)"/>
<path d="M0 0 C7.26 0 14.52 0 22 0 C22 7.26 22 14.52 22 22 C14.74 22 7.48 22 0 22 C0 14.74 0 7.48 0 0 Z " fill="#0F2C58" transform="translate(89,44)"/>
<path d="M0 0 C7.59 0 15.18 0 23 0 C23 0.33 23 0.66 23 1 C16.4 1.33 9.8 1.66 3 2 C1.95425369 5.13723892 1.93007483 7.28038753 2 10.5625 C2.11082803 15.77834395 2.11082803 15.77834395 1 18 C1.66 18 2.32 18 3 18 C3 18.99 3 19.98 3 21 C16.53 21 30.06 21 44 21 C44 14.07 44 7.14 44 0 C44.33 0 44.66 0 45 0 C45 7.26 45 14.52 45 22 C30.15 22 15.3 22 0 22 C0 14.74 0 7.48 0 0 Z " fill="#142B4C" transform="translate(333,400)"/>
<path d="M0 0 C0.99 0.33 1.98 0.66 3 1 C2.835 1.94875 2.67 2.8975 2.5 3.875 C1.2434373 12.13044322 1.2434373 12.13044322 3 20 C23.295 20.495 23.295 20.495 44 21 C44 14.4 44 7.8 44 1 C37.07 1 30.14 1 23 1 C23 0.67 23 0.34 23 0 C30.26 0 37.52 0 45 0 C45 7.26 45 14.52 45 22 C30.15 22 15.3 22 0 22 C0 14.74 0 7.48 0 0 Z " fill="#152C4D" transform="translate(133,400)"/>
<path d="M0 0 C7.26 0 14.52 0 22 0 C22 14.85 22 29.7 22 45 C14.74 45 7.48 45 0 45 C0 44.67 0 44.34 0 44 C6.93 44 13.86 44 21 44 C20.67 30.47 20.34 16.94 20 3 C17.56699411 1.78349705 15.96319452 1.8667782 13.25 1.875 C12.40953125 1.87242187 11.5690625 1.86984375 10.703125 1.8671875 C7.43235479 1.97559615 7.43235479 1.97559615 2 3 C1.67 9.6 1.34 16.2 1 23 C0.67 23 0.34 23 0 23 C0 15.41 0 7.82 0 0 Z " fill="#142B4B" transform="translate(400,333)"/>
<path d="M0 0 C7.26 0 14.52 0 22 0 C22 7.26 22 14.52 22 22 C21.34 21.67 20.68 21.34 20 21 C19.505 11.1 19.505 11.1 19 1 C13.39 1 7.78 1 2 1 C2 7.93 2 14.86 2 22 C1.34 22 0.68 22 0 22 C0 14.74 0 7.48 0 0 Z " fill="#3F6977" transform="translate(133,378)"/>
<path d="M0 0 C0.99 0.33 1.98 0.66 3 1 C3 7.27 3 13.54 3 20 C5.619375 20.020625 8.23875 20.04125 10.9375 20.0625 C12.17681274 20.07615601 12.17681274 20.07615601 13.44116211 20.09008789 C15.29433759 20.09723945 17.14749308 20.0502852 19 20 C20.54950268 18.45049732 20.21655193 16.90009406 20.31640625 14.74609375 C20.35830078 13.89208984 20.40019531 13.03808594 20.44335938 12.15820312 C20.48267578 11.26037109 20.52199219 10.36253906 20.5625 9.4375 C20.60568359 8.53580078 20.64886719 7.63410156 20.69335938 6.70507812 C20.79978142 4.47021515 20.90179988 2.23523692 21 0 C21.33 0 21.66 0 22 0 C22 7.26 22 14.52 22 22 C14.74 22 7.48 22 0 22 C0 14.74 0 7.48 0 0 Z " fill="#416874" transform="translate(133,111)"/>
<path d="M0 0 C7.26 0 14.52 0 22 0 C22 7.26 22 14.52 22 22 C21.67 22 21.34 22 21 22 C21 15.4 21 8.8 21 2 C18.050625 2.144375 15.10125 2.28875 12.0625 2.4375 C11.13187744 2.48060303 10.20125488 2.52370605 9.24243164 2.56811523 C8.51403076 2.60622314 7.78562988 2.64433105 7.03515625 2.68359375 C6.2862915 2.72025146 5.53742676 2.75690918 4.76586914 2.79467773 C2.97538674 2.81771063 2.97538674 2.81771063 2 4 C1.84417697 5.34015221 1.74955858 6.68758903 1.68359375 8.03515625 C1.62075195 9.24848633 1.62075195 9.24848633 1.55664062 10.48632812 C1.51732422 11.33646484 1.47800781 12.18660156 1.4375 13.0625 C1.39431641 13.91650391 1.35113281 14.77050781 1.30664062 15.65039062 C1.20023298 17.76672037 1.09958269 19.88333813 1 22 C0.67 22 0.34 22 0 22 C0 14.74 0 7.48 0 0 Z " fill="#406B77" transform="translate(200,133)"/>
<path d="M0 0 C7.26 0 14.52 0 22 0 C22 7.26 22 14.52 22 22 C15.4 22 8.8 22 2 22 C2 21.67 2 21.34 2 21 C10.415 20.505 10.415 20.505 19 20 C19.33 13.73 19.66 7.46 20 1 C13.4 1 6.8 1 0 1 C0 0.67 0 0.34 0 0 Z " fill="#3E6775" transform="translate(289,356)"/>
<path d="M0 0 C6.93 0 13.86 0 21 0 C21 7.59 21 15.18 21 23 C13.74 23 6.48 23 -1 23 C-0.67 22.34 -0.34 21.68 0 21 C1.28777344 21.01160156 2.57554687 21.02320313 3.90234375 21.03515625 C5.58072772 21.0445327 7.25911326 21.05363305 8.9375 21.0625 C9.78763672 21.07087891 10.63777344 21.07925781 11.51367188 21.08789062 C12.32255859 21.09111328 13.13144531 21.09433594 13.96484375 21.09765625 C14.7137085 21.10289307 15.46257324 21.10812988 16.23413086 21.11352539 C18.02667739 21.19341752 18.02667739 21.19341752 19 20 C19.08631874 18.65732587 19.10706473 17.31025678 19.09765625 15.96484375 C19.09515869 15.23644287 19.09266113 14.50804199 19.09008789 13.75756836 C19.08098389 12.8269458 19.07187988 11.89632324 19.0625 10.9375 C19.0315625 6.5134375 19.0315625 6.5134375 19 2 C12.73 1.67 6.46 1.34 0 1 C0 0.67 0 0.34 0 0 Z " fill="#426976" transform="translate(312,155)"/>
<path d="M0 0 C7.26 0 14.52 0 22 0 C22 7.26 22 14.52 22 22 C21.67 22 21.34 22 21 22 C21 15.07 21 8.14 21 1 C18.23625 1.103125 15.4725 1.20625 12.625 1.3125 C11.75568848 1.33739502 10.88637695 1.36229004 9.99072266 1.38793945 C7.98575913 1.48481695 5.99036453 1.73978268 4 2 C2.0243438 4.96348429 1.73623141 5.68020373 1.5859375 9.01171875 C1.54726563 9.76904297 1.50859375 10.52636719 1.46875 11.30664062 C1.4378125 12.09232422 1.406875 12.87800781 1.375 13.6875 C1.33632813 14.48478516 1.29765625 15.28207031 1.2578125 16.10351562 C1.16367506 18.06863475 1.08075368 20.0342854 1 22 C0.67 22 0.34 22 0 22 C0 14.74 0 7.48 0 0 Z " fill="#142B4D" transform="translate(44,400)"/>
<path d="M0 0 C7.26 0 14.52 0 22 0 C22 0.33 22 0.66 22 1 C20.80761719 1.04898438 19.61523438 1.09796875 18.38671875 1.1484375 C16.82028932 1.22347604 15.25388421 1.2990234 13.6875 1.375 C12.90181641 1.4059375 12.11613281 1.436875 11.30664062 1.46875 C10.1706543 1.52675781 10.1706543 1.52675781 9.01171875 1.5859375 C8.31522217 1.6173584 7.61872559 1.6487793 6.90112305 1.68115234 C4.67467261 1.92118253 4.67467261 1.92118253 2 4 C1.61411212 6.95160043 1.39721507 9.66682652 1.3125 12.625 C1.209375 15.38875 1.10625 18.1525 1 21 C7.93 21 14.86 21 22 21 C22 21.33 22 21.66 22 22 C14.74 22 7.48 22 0 22 C0 14.74 0 7.48 0 0 Z " fill="#152B4E" transform="translate(400,44)"/>
<path d="M0 0 C0.33 0 0.66 0 1 0 C1 7.26 1 14.52 1 22 C-13.52 22 -28.04 22 -43 22 C-42.505 20.515 -42.505 20.515 -42 19 C-41.67 19.66 -41.34 20.32 -41 21 C-35.46395625 20.88206661 -29.92810387 20.75784219 -24.39233398 20.62768555 C-22.50760782 20.58427067 -20.62284064 20.54260057 -18.73803711 20.50268555 C-16.03486751 20.44514107 -13.33190564 20.38140196 -10.62890625 20.31640625 C-9.78099014 20.29969376 -8.93307404 20.28298126 -8.0594635 20.26576233 C-4.21707924 20.53590805 -4.21707924 20.53590805 -1 19 C-0.84379445 17.58672053 -0.74943827 16.1664541 -0.68359375 14.74609375 C-0.62075195 13.46508789 -0.62075195 13.46508789 -0.55664062 12.15820312 C-0.51732422 11.26037109 -0.47800781 10.36253906 -0.4375 9.4375 C-0.37272461 8.08495117 -0.37272461 8.08495117 -0.30664062 6.70507812 C-0.20021858 4.47021515 -0.09820012 2.23523692 0 0 Z " fill="#EDFEFF" transform="translate(132,111)"/>
<path d="M0 0 C6.93 0 13.86 0 21 0 C21 0.33 21 0.66 21 1 C19.79601562 1.03738281 18.59203125 1.07476562 17.3515625 1.11328125 C15.77600989 1.17892928 14.20049046 1.24537701 12.625 1.3125 C11.8309375 1.33505859 11.036875 1.35761719 10.21875 1.38085938 C8.13784419 1.47785075 6.06558668 1.72994825 4 2 C1.51752547 5.7237118 1.55677028 8.86765615 1.375 13.1875 C1.25125 15.765625 1.1275 18.34375 1 21 C7.93 21 14.86 21 22 21 C22 21.33 22 21.66 22 22 C14.74 22 7.48 22 0 22 C0 14.74 0 7.48 0 0 Z " fill="#416A76" transform="translate(133,200)"/>
<path d="M0 0 C0.33 0 0.66 0 1 0 C1 7.26 1 14.52 1 22 C-6.26 22 -13.52 22 -21 22 C-21 15.4 -21 8.8 -21 2 C-20.67 2 -20.34 2 -20 2 C-19.67 7.94 -19.34 13.88 -19 20 C-13.06 20 -7.12 20 -1 20 C-0.67 13.4 -0.34 6.8 0 0 Z " fill="#426878" transform="translate(377,111)"/>
<path d="M0 0 C0.66 0 1.32 0 2 0 C2 5.94 2 11.88 2 18 C7.17574802 17.92096705 7.17574802 17.92096705 12.35107422 17.81982422 C14.23495049 17.80522783 16.11869312 17.90056518 18 18 C18.66 18.66 19.32 19.32 20 20 C13.4 20 6.8 20 0 20 C0 13.4 0 6.8 0 0 Z " fill="#3F6875" transform="translate(133,291)"/>
</svg>
